HIERARCHY
ROOT Hips
{
	OFFSET -3.958830 18.904000 13.208200
	CHANNELS 6 Xposition Yposition Zposition Zrotation Yrotation Xrotation 
	JOINT LHipJoint
	{
		OFFSET 0.000000 0.000000 0.000000
		CHANNELS 3 Zrotation Yrotation Xrotation
		JOINT LeftUpLeg
		{
			OFFSET 1.800000 -1.400000 0.085000
			CHANNELS 3 Zrotation Yrotation Xrotation
			JOINT LeftLeg
			{
				OFFSET 2.215000 -6.000000 0.000000
				CHANNELS 3 Zrotation Yrotation Xrotation
				JOINT LeftFoot
				{
					OFFSET 2.500000 -6.900000 0.000000
					CHANNELS 3 Zrotation Yrotation Xrotation
					JOINT LeftToeBase
					{
						OFFSET 0.200000 -0.500000 1.950000
						CHANNELS 3 Zrotation Yrotation Xrotation
						End Site
						{
							OFFSET 0.000000 0.000000 0.000000
						}
					}
				}
			}
		}
	}
	JOINT RHipJoint
	{
		OFFSET 0.000000 0.000000 0.000000
		CHANNELS 3 Zrotation Yrotation Xrotation
		JOINT RightUpLeg
		{
			OFFSET -1.800000 -1.400000 0.085000
			CHANNELS 3 Zrotation Yrotation Xrotation
			JOINT RightLeg
			{
				OFFSET -2.215000 -6.000000 0.000000
				CHANNELS 3 Zrotation Yrotation Xrotation
				JOINT RightFoot
				{
					OFFSET -2.500000 -6.900000 0.000000
					CHANNELS 3 Zrotation Yrotation Xrotation
					JOINT RightToeBase
					{
						OFFSET -0.200000 -0.500000 1.950000
						CHANNELS 3 Zrotation Yrotation Xrotation
						End Site
						{
							OFFSET 0.000000 0.000000 0.000000
						}
					}
				}
			}
		}
	}
	JOINT LowerBack
	{
		OFFSET 0.000000 0.000000 0.000000
		CHANNELS 3 Zrotation Yrotation Xrotation
		JOINT Spine
		{
			OFFSET -0.087000 1.940000 -0.288900
			CHANNELS 3 Zrotation Yrotation Xrotation
			JOINT Spine1
			{
				OFFSET 0.000000 1.950000 0.060000
				CHANNELS 3 Zrotation Yrotation Xrotation
				JOINT Neck
				{
					OFFSET 0.000000 0.000000 0.000000
					CHANNELS 3 Zrotation Yrotation Xrotation
					JOINT Neck1
					{
						OFFSET 0.000000 1.600000 0.340000
						CHANNELS 3 Zrotation Yrotation Xrotation
						JOINT Head
						{
							OFFSET 0.000000 1.667000 -0.240000
							CHANNELS 3 Zrotation Yrotation Xrotation
							End Site
							{
								OFFSET 0.000000 0.000000 0.000000
							}
						}
					}
				}
				JOINT LeftShoulder
				{
					OFFSET 0.000000 0.000000 0.000000
					CHANNELS 3 Zrotation Yrotation Xrotation
					JOINT LeftArm
					{
						OFFSET 2.700000 1.550000 -0.730000
						CHANNELS 3 Zrotation Yrotation Xrotation
						JOINT LeftForeArm
						{
							OFFSET 5.450000 0.000000 0.000000
							CHANNELS 3 Zrotation Yrotation Xrotation
							JOINT LeftHand
							{
								OFFSET 3.450000 0.000000 0.000000
								CHANNELS 3 Zrotation Yrotation Xrotation
								JOINT LeftHandIndex1
								{
									OFFSET 0.750000 0.000000 0.000000
									CHANNELS 3 Zrotation Yrotation Xrotation
									End Site
									{
										OFFSET 0.000000 0.000000 0.000000
									}
								}
							}
						}
					}
				}
				JOINT RightShoulder
				{
					OFFSET 0.000000 0.000000 0.000000
					CHANNELS 3 Zrotation Yrotation Xrotation
					JOINT RightArm
					{
						OFFSET -2.700000 1.550000 -0.730000
						CHANNELS 3 Zrotation Yrotation Xrotation
						JOINT RightForeArm
						{
							OFFSET -5.450000 0.000000 0.000000
							CHANNELS 3 Zrotation Yrotation Xrotation
							JOINT RightHand
							{
								OFFSET -3.450000 0.000000 0.000000
								CHANNELS 3 Zrotation Yrotation Xrotation
								JOINT RightHandIndex1
								{
									OFFSET -0.750000 0.000000 0.000000
									CHANNELS 3 Zrotation Yrotation Xrotation
									End Site
									{
										OFFSET 0.000000 0.000000 0.000000
									}
								}
							}
						}
					}
				}
			}
		}
	}
}
MOTION
Frames: 14
Frame Time: 0.016667
0.000760 17.428540 -4.490030 -0.387528 -0.964069 -1.053970 -15.260548 11.830991 3.885954 -6.254366 -8.852572 -14.448893 -17.004824 17.735803 49.887716 0.942899 11.462008 0.916801 -0.194030 -0.492280 -0.131630 18.547727 -8.367753 4.308135 -11.311469 6.387911 -42.428389 27.755897 -19.314186 38.692836 -1.408265 -8.193879 1.345826 -0.281160 0.618910 0.423500 -3.897320 -3.105621 -8.781743 22.244624 -11.638156 33.424786 -8.005656 -5.305800 5.303377 4.425049 -7.975354 -11.969851 -15.738727 2.693266 26.730773 -9.799780 1.441490 -28.363120 -3.577631 0.636419 4.664182 -44.486227 0.475725 -8.327104 -132.767526 -71.819859 103.210671 -3.802103 2.592454 1.036460 0.075830 0.224340 0.150240 -4.959797 3.739005 7.251063 56.625292 -2.168871 -15.715116 55.947009 75.903202 33.053155 1.951205 -1.482765 -0.513320 0.610130 0.461930 -0.067820 
0.009210 17.284570 -4.507680 -0.413256 -1.507235 -1.001953 -15.261616 11.606451 3.958955 -6.696112 -9.409440 -14.755244 -18.223615 19.005881 51.624463 1.083821 11.978518 0.756128 -0.139230 -0.399630 -0.102920 18.589375 -8.254082 4.350240 -10.746058 6.741987 -43.476131 28.652497 -19.559407 38.523063 -1.453464 -8.268316 1.309705 -0.222570 0.594400 0.434780 -3.965746 -2.928010 -8.804109 22.983005 -12.238518 33.923185 -8.915197 -5.666567 5.890056 4.408111 -8.032241 -11.578958 -15.320739 2.974589 24.926503 -11.042000 2.100000 -29.485620 -2.822446 1.898937 4.217584 -40.941392 0.400100 -7.167639 -147.735970 -70.339919 121.276714 -3.726014 2.821669 1.011670 0.083830 0.242650 0.162960 -5.708334 2.175166 7.047253 56.253699 -2.573647 -11.874690 84.325954 81.783848 54.631226 3.160389 0.426270 -0.491560 0.596180 0.426310 -0.062170 
0.023960 17.070940 -4.529740 -0.485238 -2.548114 -1.912960 -15.266934 11.479369 4.021133 -7.153758 -9.500685 -13.206953 -20.502603 20.731684 52.360177 1.254642 12.521088 0.609291 -0.095650 -0.336960 -0.088840 18.608449 -8.213309 4.323981 -8.910640 7.312086 -43.812689 28.457599 -19.318291 38.599754 -1.469204 -8.195405 1.330189 -0.185000 0.580610 0.446920 -3.997283 -2.801366 -8.815334 23.358188 -13.053214 35.931817 -8.936076 -6.219252 7.056089 4.086460 -8.314308 -11.701725 -15.412618 3.369497 23.351940 -11.442000 2.565760 -31.427590 -2.235714 2.222691 4.348034 -35.588868 1.304071 -5.787730 -171.121983 -65.179676 150.622682 -3.724643 3.039131 1.004540 0.080470 0.252930 0.177490 -5.520186 1.801806 7.107246 52.713377 -4.604819 -19.911391 126.078735 71.320094 94.747797 2.013208 -0.144826 -0.476090 0.586530 0.405340 -0.057430 
0.027020 16.812460 -4.555530 -0.136108 -3.731168 -2.475849 -15.315783 11.443753 4.051118 -8.318378 -9.378404 -11.249795 -21.683674 21.666113 52.701900 1.312384 12.850167 0.517540 -0.074680 -0.317760 -0.060960 18.588707 -8.096150 4.364548 -7.166318 8.032895 -44.797261 27.915331 -19.203982 39.476338 -1.498776 -8.233347 1.296128 -0.155850 0.587920 0.471800 -3.910834 -2.899042 -8.841966 21.929679 -12.880620 37.563914 -7.749549 -6.668369 8.432208 3.655147 -7.958086 -11.348268 -14.387382 4.033965 22.305731 -12.486800 3.697880 -33.562570 -2.459407 2.676023 4.065855 -28.766149 3.350858 -4.728783 173.677792 -58.066943 174.348634 -3.825551 3.089639 1.020790 0.094180 0.255310 0.168090 -4.359383 0.821913 6.995407 46.680265 -6.132952 -16.553515 151.178030 65.389565 120.720843 1.684328 -1.216704 -0.491380 0.592550 0.419120 -0.076230 
0.022050 16.552050 -4.556120 -0.034685 -3.693209 -3.210945 -15.359442 11.511430 3.990686 -9.361614 -8.701956 -8.548635 -21.267053 22.037962 53.401751 1.393933 13.038399 0.500426 -0.106190 -0.364100 -0.077180 18.567102 -7.958025 4.439976 -6.467983 8.675111 -45.184517 29.013246 -19.561020 39.789655 -1.523382 -8.386438 1.268589 -0.172200 0.611750 0.441290 -3.820933 -3.137559 -8.846673 21.528322 -12.712539 38.539602 -6.066106 -6.947777 9.659269 3.162270 -8.358694 -11.750482 -15.023921 4.361858 21.582098 -12.393860 3.681570 -33.194960 -1.519473 3.759959 4.486872 -24.336734 7.798815 -4.191281 169.684369 -53.583246 -177.847687 -3.881037 3.097709 1.002300 0.098730 0.212470 0.161330 -4.132817 0.058847 7.420393 41.571014 -8.855559 -13.893853 169.668650 57.564691 141.311133 1.683087 -1.589314 -0.517460 0.604120 0.431050 -0.076080 
0.012230 16.313510 -4.568130 -0.174434 -3.767572 -3.760666 -15.312736 11.291725 3.888367 -9.704311 -8.145741 -6.766175 -21.401649 22.926250 54.287202 1.506948 13.353514 0.455999 -0.114000 -0.334770 -0.130110 18.650559 -7.896148 4.645976 -6.694391 9.663897 -46.784778 31.167673 -20.696461 40.890238 -1.622271 -8.918605 1.140629 -0.128710 0.693900 0.428020 -4.017236 -2.704621 -8.880474 22.745747 -12.970679 38.917456 -6.708903 -7.081515 9.633666 2.372294 -7.897963 -11.302875 -13.777919 4.886364 20.637785 -11.319630 4.126640 -30.411280 -0.135412 5.276025 3.824588 -17.534891 9.925891 -2.909400 166.934401 -51.672202 -170.343353 -3.984956 3.128078 0.912790 0.174230 0.151430 0.198280 -3.994471 -1.942052 7.475088 39.105365 -9.794163 -10.368276 -179.068569 49.937980 159.429537 1.707062 -1.802671 -0.529640 0.626830 0.421840 -0.037360 
0.019840 16.136590 -4.577220 -0.247509 -4.003320 -3.975887 -15.302228 11.055557 3.862840 -10.154997 -8.295122 -6.074566 -22.228107 23.878260 54.968517 1.596131 13.720622 0.394799 -0.143910 -0.372110 -0.176630 18.704903 -7.728483 4.856322 -7.773922 10.150385 -48.852206 34.265601 -22.721297 42.189252 -1.783731 -9.665604 0.952180 -0.122830 0.788280 0.442210 -4.123957 -2.498839 -8.979489 23.505388 -13.080342 38.953190 -7.080367 -7.185511 9.428886 1.928887 -7.511776 -10.910614 -12.929527 5.000774 20.406906 -10.705910 4.337540 -27.770100 0.762546 6.116943 2.950997 -12.709303 9.979891 -2.068371 162.843389 -51.077879 -160.220447 -4.096467 3.118810 0.861230 0.253780 0.088610 0.219700 -4.082269 -3.136219 7.749211 37.329557 -10.722574 -8.000143 -174.656251 44.457978 169.151486 1.716052 -1.874653 -0.554700 0.651240 0.449830 -0.022270 
0.027060 16.056380 -4.578130 -0.681690 -4.746568 -4.348823 -15.268670 10.865367 3.874902 -9.924353 -8.500728 -5.923239 -23.908311 24.942925 54.710653 1.722359 13.926441 0.346338 -0.223640 -0.432950 -0.275930 18.755256 -7.701348 4.947941 -8.041360 10.471101 -49.651296 35.850627 -23.995995 43.090685 -1.883959 -10.065864 0.860708 -0.179920 0.815080 0.454560 -4.261149 -2.202403 -9.040558 24.591524 -13.226162 38.399037 -8.028808 -7.144631 10.759481 1.951217 -7.161765 -11.236652 -12.609590 4.751236 22.123645 -10.050380 4.266460 -27.299920 1.552806 4.998242 2.854298 -11.400788 8.287322 -2.598652 159.021087 -50.902982 -152.598487 -4.123471 3.098131 0.824630 0.268890 0.072700 0.203670 -4.959130 -2.371531 8.608276 39.926404 -10.310273 -7.635034 -172.659420 41.746825 174.202464 1.746306 -1.843050 -0.526820 0.637250 0.510520 0.007030 
0.027070 16.063010 -4.580380 -0.923440 -6.541694 -5.293774 -15.290362 10.903657 3.980962 -9.664997 -8.904951 -6.166271 -25.528819 25.726681 54.314523 1.882033 14.012652 0.349397 -0.254360 -0.456000 -0.324480 18.717262 -7.715624 4.850133 -6.784967 10.613079 -48.273973 35.247089 -24.093648 43.721552 -1.921084 -10.084842 0.893117 -0.249220 0.795110 0.469260 -4.198417 -2.341231 -9.077544 23.542683 -13.093873 39.219957 -7.853991 -7.319275 12.137716 2.366870 -7.287937 -12.212223 -13.603593 5.360754 24.764186 -10.056450 4.632190 -27.000870 1.695182 2.278249 3.782015 -14.354245 6.417393 -4.483933 155.423123 -52.076916 -148.158512 -4.048481 3.078862 0.815650 0.240040 0.104640 0.220120 -5.854684 0.508844 9.403997 41.984445 -7.739703 -8.213211 -173.354494 42.589930 170.960818 1.800144 -1.791850 -0.469590 0.598180 0.502040 0.043620 
0.016400 16.129250 -4.566070 -1.741348 -8.684918 -5.600678 -15.304113 11.056268 4.026474 -8.433999 -8.918653 -7.121257 -25.943120 26.003704 54.153811 1.947487 14.032061 0.352150 -0.332740 -0.546930 -0.378910 18.664154 -7.786618 4.739165 -4.892446 11.120872 -45.890682 34.898580 -23.311741 42.513653 -1.849773 -9.709736 1.038223 -0.337120 0.796690 0.464450 -4.118186 -2.510335 -9.071428 23.267379 -12.781276 39.497531 -7.591472 -6.855797 12.855011 2.997217 -7.446110 -13.284215 -14.707833 5.819678 27.512688 -10.486020 4.954950 -25.826090 0.826855 -0.432445 4.948969 -18.865860 5.603257 -6.030041 154.638208 -51.927080 -148.436222 -4.017083 3.018447 0.822510 0.226310 0.109460 0.202100 -6.175052 3.644963 10.155057 43.888942 -5.506814 -9.341235 -175.864532 44.800540 163.042716 1.847711 -1.677145 -0.455910 0.588270 0.539210 0.054400 
-0.006340 16.239440 -4.543170 -2.158153 -10.802897 -4.989640 -15.320123 11.235292 4.068919 -7.170286 -8.853608 -9.152166 -25.738288 25.799825 53.924720 2.007155 13.904043 0.373968 -0.399170 -0.610870 -0.448650 18.603750 -7.839011 4.665051 -3.626310 11.437623 -43.862636 34.627891 -22.040155 40.383421 -1.732345 -9.165451 1.221544 -0.429970 0.792080 0.489630 -4.014238 -2.733185 -9.095986 22.425028 -11.842437 38.746515 -7.182335 -5.880165 12.571960 3.553334 -7.233491 -14.565560 -15.339796 6.461180 30.943452 -9.874530 5.371050 -22.590380 -0.197891 -3.384028 6.580988 -24.905187 5.500741 -7.388678 158.472027 -53.966102 -158.722290 -3.971767 3.053628 0.798500 0.222280 0.125380 0.190630 -6.236086 6.999010 10.836336 46.697700 -3.835781 -11.377674 177.679649 49.534062 148.576635 1.889869 -1.563733 -0.394270 0.532100 0.568880 0.086730 
-0.029810 16.395420 -4.509930 -2.234977 -11.916469 -4.269188 -15.318119 11.490411 4.043284 -6.124904 -8.401570 -10.450240 -23.940392 24.569869 53.643679 1.996640 13.479019 0.454449 -0.393050 -0.586370 -0.453740 18.547766 -7.962316 4.591876 -3.232150 11.226979 -41.726397 34.656611 -20.475373 37.363607 -1.601794 -8.496139 1.427455 -0.480850 0.727920 0.510700 -3.915220 -2.937259 -9.092399 21.727060 -10.855375 37.433313 -6.943742 -4.868080 11.687520 4.090197 -6.775037 -15.629935 -15.502065 6.740065 34.480752 -9.053800 5.563150 -19.676850 -1.830308 -6.399257 8.044517 -31.064886 5.165773 -8.723867 166.359988 -57.648477 -176.015404 -3.869504 3.110096 0.771560 0.189100 0.175340 0.188540 -5.686814 10.243836 11.320791 49.742943 -2.826199 -14.144041 165.877852 55.032424 128.443143 1.977076 -1.422270 -0.301810 0.449030 0.537570 0.114840 
-0.065100 16.579680 -4.489710 -2.767288 -12.722792 -2.994012 -15.267849 11.658325 3.978320 -4.544760 -7.910850 -12.233225 -21.920439 23.291766 53.439184 1.930991 13.086193 0.521202 -0.408880 -0.605690 -0.473540 18.543704 -8.134781 4.578735 -2.318712 11.476075 -40.472968 33.390399 -18.697680 35.136337 -1.441349 -7.841968 1.623388 -0.533200 0.705610 0.545490 -3.956497 -2.858164 -9.073066 22.262462 -10.309642 35.532465 -7.957295 -3.772897 9.894584 4.572780 -6.102232 -16.380247 -14.803259 6.697735 37.077959 -8.002910 5.548610 -15.170780 -3.993702 -8.805396 8.916516 -36.381769 5.770216 -10.686935 179.762223 -63.473397 160.602271 -3.812705 3.122482 0.741140 0.193470 0.192070 0.182040 -4.583384 12.691475 11.796134 54.127988 -2.641488 -16.941420 147.663084 59.734574 103.379725 2.139128 -1.219300 -0.236970 0.368710 0.534200 0.134190 
-0.094680 16.794580 -4.465950 -3.156631 -13.336507 -1.713244 -15.201819 11.849357 3.861034 -2.994338 -7.054754 -13.401133 -20.152343 21.882175 52.160379 1.786141 12.526075 0.642103 -0.390830 -0.577620 -0.487090 18.556905 -8.332575 4.540138 -2.120594 11.469507 -39.113750 31.968875 -16.767577 32.665491 -1.262361 -7.141569 1.841127 -0.530210 0.699250 0.534890 -4.047045 -2.763932 -8.972951 22.915392 -9.930123 33.275210 -8.614985 -3.163514 8.183141 4.618322 -6.418532 -16.689616 -15.897002 7.809067 38.553936 -5.579340 4.751460 -12.050230 -5.147873 -9.787253 9.410513 -42.137540 6.361127 -13.164365 -150.154795 -70.489526 120.761033 -3.800591 2.942779 0.716960 0.183120 0.192080 0.193430 -3.509781 14.217299 11.489362 56.609375 -1.203954 -18.008617 122.749162 63.729348 74.844529 2.503185 -0.926314 -0.205770 0.348810 0.515720 0.158030 
